<?xml version="1.0" standalone="no"?>
<!DOCTYPE svg PUBLIC "-//W3C//DTD SVG 20010904//EN"
 "http://www.w3.org/TR/2001/REC-SVG-20010904/DTD/svg10.dtd">
<svg version="1.0" xmlns="http://www.w3.org/2000/svg"
 width="256.000000pt" height="256.000000pt" viewBox="0 0 256.000000 256.000000"
 preserveAspectRatio="xMidYMid meet">

<g transform="translate(0.000000,256.000000) scale(0.100000,-0.100000)"
fill="#000000" stroke="none">
<path d="M1060 2320 c-313 -67 -587 -275 -725 -550 -262 -523 -59 -1158 455
-1424 172 -89 331 -122 543 -113 164 7 268 31 402 96 283 136 491 386 578 699
18 66 21 104 21 267 0 178 -2 196 -27 280 -119 394 -428 674 -830 750 -109 21
-309 19 -417 -5z m506 -370 c112 -29 188 -68 192 -100 2 -16 -47 -129 -133
-310 -132 -277 -135 -284 -95 -245 66 64 143 171 224 308 l74 128 32 -38 c48
-58 109 -189 126 -273 12 -54 14 -105 11 -185 -8 -155 -8 -154 -72 -152 -44 1
-62 -5 -104 -31 -28 -18 -74 -47 -103 -64 -45 -29 -61 -33 -135 -37 -116 -4
-417 39 -656 96 -96 22 -112 29 -140 60 -91 100 -117 122 -154 129 -21 4 -41
9 -46 11 -12 7 24 60 49 72 15 7 27 27 39 68 36 124 110 254 193 340 40 41
139 113 155 113 5 0 5 -42 2 -92 -9 -113 10 -234 56 -364 33 -97 49 -120 73
-111 21 8 20 36 -5 127 -32 122 -44 264 -31 381 14 134 39 169 133 189 64 13
223 3 315 -20z m-871 -874 c77 -81 83 -85 165 -111 161 -50 578 -125 698 -125
80 0 129 19 219 85 63 46 82 55 117 55 49 -1 72 -16 87 -58 13 -37 -1 -97 -32
-136 -43 -54 -150 -88 -338 -108 -280 -28 -707 59 -1000 204 -114 57 -141 86
-141 151 0 47 34 115 63 127 47 20 79 3 162 -84z"/>
</g>
</svg>
